<?xml version="1.0" standalone="no"?>
<!DOCTYPE svg PUBLIC "-//W3C//DTD SVG 20010904//EN"
 "http://www.w3.org/TR/2001/REC-SVG-20010904/DTD/svg10.dtd">
<svg version="1.0" xmlns="http://www.w3.org/2000/svg"
 width="133.000000pt" height="36.000000pt" viewBox="0 0 133.000000 36.000000"
 preserveAspectRatio="xMidYMid meet">

<g transform="translate(0.000000,36.000000) scale(0.100000,-0.100000)"
fill="#000000" stroke="none">
<path d="M77 273 c-4 -5 16 -32 43 -58 l50 -49 50 49 c28 28 46 51 40 53 -6 2
-29 -16 -50 -40 l-40 -43 -44 48 c-24 27 -46 45 -49 40z"/>
<path d="M360 222 c0 -13 -7 -18 -22 -18 -20 1 -23 -4 -23 -34 0 -32 2 -35 33
-37 l32 -1 0 54 c0 30 -4 54 -10 54 -5 0 -10 -8 -10 -18z m0 -52 c0 -11 -7
-20 -15 -20 -8 0 -15 9 -15 20 0 11 7 20 15 20 8 0 15 -9 15 -20z"/>
<path d="M900 185 c0 -30 5 -55 10 -55 6 0 10 25 10 55 0 30 -4 55 -10 55 -5
0 -10 -25 -10 -55z"/>
<path d="M1070 230 c0 -5 5 -10 10 -10 6 0 10 5 10 10 0 6 -4 10 -10 10 -5 0
-10 -4 -10 -10z"/>
<path d="M482 217 c-15 -18 0 -81 21 -85 9 -2 17 1 17 7 0 6 -4 11 -10 11 -14
0 -12 38 2 42 9 3 8 9 -4 21 -12 13 -18 14 -26 4z"/>
<path d="M1013 215 c-13 -5 -27 -21 -32 -35 l-9 -25 -11 28 c-6 15 -15 27 -21
27 -6 0 -3 -17 6 -40 14 -34 14 -43 3 -56 -12 -14 -11 -16 5 -13 13 3 25 21
35 52 17 49 31 53 31 10 0 -24 25 -42 38 -28 4 4 1 10 -5 12 -17 6 -17 40 -1
45 10 4 9 8 -2 19 -11 11 -21 12 -37 4z"/>
<path d="M405 201 c-3 -6 2 -11 12 -11 12 0 19 -8 20 -20 1 -11 -2 -20 -8 -20
-5 0 -9 5 -9 10 0 6 -5 10 -11 10 -6 0 -9 -8 -7 -17 2 -12 14 -18 34 -19 30
-1 30 -1 25 35 -5 27 -12 37 -28 39 -11 2 -24 -2 -28 -7z"/>
<path d="M535 201 c-3 -6 2 -11 12 -11 12 0 19 -8 20 -20 1 -11 -2 -20 -8 -20
-5 0 -9 5 -9 10 0 6 -5 10 -11 10 -6 0 -9 -8 -7 -17 2 -12 14 -18 34 -19 30
-1 30 -1 25 35 -5 27 -12 37 -28 39 -11 2 -24 -2 -28 -7z"/>
<path d="M655 201 c-3 -6 2 -11 12 -11 12 0 19 -8 20 -20 1 -11 -2 -20 -8 -20
-5 0 -9 5 -9 10 0 6 -5 10 -11 10 -6 0 -9 -8 -7 -17 2 -12 14 -18 34 -19 30
-1 30 -1 25 35 -5 27 -12 37 -28 39 -11 2 -24 -2 -28 -7z"/>
<path d="M730 169 c0 -44 17 -54 22 -12 4 39 28 42 28 4 0 -17 5 -31 11 -31 6
0 9 16 7 38 -3 34 -6 37 -35 39 -32 1 -33 0 -33 -38z"/>
<path d="M825 201 c-3 -6 2 -11 12 -11 12 0 19 -8 20 -20 1 -11 -2 -20 -8 -20
-5 0 -9 5 -9 10 0 6 -5 10 -11 10 -6 0 -9 -8 -7 -17 2 -12 14 -18 34 -19 30
-1 30 -1 25 35 -5 27 -12 37 -28 39 -11 2 -24 -2 -28 -7z"/>
<path d="M1070 170 c0 -22 5 -40 10 -40 6 0 10 18 10 40 0 22 -4 40 -10 40 -5
0 -10 -18 -10 -40z"/>
<path d="M1123 203 c-7 -2 -13 -17 -13 -33 0 -36 34 -51 59 -25 15 15 14 16
-11 10 -24 -6 -28 -4 -28 15 0 19 4 21 27 15 23 -5 25 -4 14 9 -14 16 -26 19
-48 9z"/>
<path d="M1197 203 c-14 -13 -6 -32 16 -39 l22 -8 -25 -6 c-21 -6 -23 -8 -7
-15 41 -18 65 23 25 43 l-23 11 23 0 c13 1 20 5 17 11 -7 11 -38 13 -48 3z"/>
<path d="M117 148 l53 -53 50 50 c27 27 47 51 45 54 -3 3 -26 -15 -50 -39
l-45 -44 -43 42 c-23 23 -47 42 -52 42 -5 0 14 -24 42 -52z"/>
</g>
</svg>
